<svg xmlns="http://www.w3.org/2000/svg" width="37.925" height="37.925" style="image-rendering: pixelated;" shape-rendering="crispEdges">
<rect x="11.274999999999999" y="6.1499999999999995" width="1.025" height="1.025" fill="rgba(12,255,0,1.00)" />
<rect x="12.299999999999999" y="6.1499999999999995" width="1.025" height="1.025" fill="rgba(12,255,0,1.00)" />
<rect x="13.325" y="6.1499999999999995" width="1.025" height="1.025" fill="rgba(12,255,0,1.00)" />
<rect x="14.349999999999998" y="6.1499999999999995" width="1.025" height="1.025" fill="rgba(12,255,0,1.00)" />
<rect x="15.374999999999998" y="6.1499999999999995" width="1.025" height="1.025" fill="rgba(12,255,0,1.00)" />
<rect x="16.4" y="6.1499999999999995" width="1.025" height="1.025" fill="rgba(12,255,0,1.00)" />
<rect x="17.424999999999997" y="6.1499999999999995" width="1.025" height="1.025" fill="rgba(12,255,0,1.00)" />
<rect x="18.45" y="6.1499999999999995" width="1.025" height="1.025" fill="rgba(12,255,0,1.00)" />
<rect x="19.474999999999998" y="6.1499999999999995" width="1.025" height="1.025" fill="rgba(12,255,0,1.00)" />
<rect x="10.25" y="7.174999999999999" width="1.025" height="1.025" fill="rgba(12,255,0,1.00)" />
<rect x="11.274999999999999" y="7.174999999999999" width="1.025" height="1.025" fill="rgba(0,0,0,1.00)" />
<rect x="12.299999999999999" y="7.174999999999999" width="1.025" height="1.025" fill="rgba(0,0,0,1.00)" />
<rect x="13.325" y="7.174999999999999" width="1.025" height="1.025" fill="rgba(0,0,0,1.00)" />
<rect x="14.349999999999998" y="7.174999999999999" width="1.025" height="1.025" fill="rgba(0,0,0,1.00)" />
<rect x="15.374999999999998" y="7.174999999999999" width="1.025" height="1.025" fill="rgba(0,0,0,1.00)" />
<rect x="16.4" y="7.174999999999999" width="1.025" height="1.025" fill="rgba(0,0,0,1.00)" />
<rect x="17.424999999999997" y="7.174999999999999" width="1.025" height="1.025" fill="rgba(0,0,0,1.00)" />
<rect x="18.45" y="7.174999999999999" width="1.025" height="1.025" fill="rgba(0,0,0,1.00)" />
<rect x="19.474999999999998" y="7.174999999999999" width="1.025" height="1.025" fill="rgba(0,0,0,1.00)" />
<rect x="20.5" y="7.174999999999999" width="1.025" height="1.025" fill="rgba(12,255,0,1.00)" />
<rect x="9.225" y="8.2" width="1.025" height="1.025" fill="rgba(12,255,0,1.00)" />
<rect x="10.25" y="8.2" width="1.025" height="1.025" fill="rgba(0,0,0,1.00)" />
<rect x="11.274999999999999" y="8.2" width="1.025" height="1.025" fill="rgba(0,0,0,1.00)" />
<rect x="12.299999999999999" y="8.2" width="1.025" height="1.025" fill="rgba(0,0,0,1.00)" />
<rect x="13.325" y="8.2" width="1.025" height="1.025" fill="rgba(0,0,0,1.00)" />
<rect x="14.349999999999998" y="8.2" width="1.025" height="1.025" fill="rgba(0,0,0,1.00)" />
<rect x="15.374999999999998" y="8.2" width="1.025" height="1.025" fill="rgba(0,0,0,1.00)" />
<rect x="16.4" y="8.2" width="1.025" height="1.025" fill="rgba(0,0,0,1.00)" />
<rect x="17.424999999999997" y="8.2" width="1.025" height="1.025" fill="rgba(0,0,0,1.00)" />
<rect x="18.45" y="8.2" width="1.025" height="1.025" fill="rgba(0,0,0,1.00)" />
<rect x="19.474999999999998" y="8.2" width="1.025" height="1.025" fill="rgba(0,0,0,1.00)" />
<rect x="20.5" y="8.2" width="1.025" height="1.025" fill="rgba(0,0,0,1.00)" />
<rect x="21.525" y="8.2" width="1.025" height="1.025" fill="rgba(12,255,0,1.00)" />
<rect x="9.225" y="9.225" width="1.025" height="1.025" fill="rgba(12,255,0,1.00)" />
<rect x="10.25" y="9.225" width="1.025" height="1.025" fill="rgba(0,0,0,1.00)" />
<rect x="11.274999999999999" y="9.225" width="1.025" height="1.025" fill="rgba(0,0,0,1.00)" />
<rect x="12.299999999999999" y="9.225" width="1.025" height="1.025" fill="rgba(0,0,0,1.00)" />
<rect x="13.325" y="9.225" width="1.025" height="1.025" fill="rgba(0,0,0,1.00)" />
<rect x="14.349999999999998" y="9.225" width="1.025" height="1.025" fill="rgba(0,0,0,1.00)" />
<rect x="15.374999999999998" y="9.225" width="1.025" height="1.025" fill="rgba(0,0,0,1.00)" />
<rect x="16.4" y="9.225" width="1.025" height="1.025" fill="rgba(0,0,0,1.00)" />
<rect x="17.424999999999997" y="9.225" width="1.025" height="1.025" fill="rgba(0,0,0,1.00)" />
<rect x="18.45" y="9.225" width="1.025" height="1.025" fill="rgba(0,0,0,1.00)" />
<rect x="19.474999999999998" y="9.225" width="1.025" height="1.025" fill="rgba(0,0,0,1.00)" />
<rect x="20.5" y="9.225" width="1.025" height="1.025" fill="rgba(0,0,0,1.00)" />
<rect x="21.525" y="9.225" width="1.025" height="1.025" fill="rgba(12,255,0,1.00)" />
<rect x="9.225" y="10.25" width="1.025" height="1.025" fill="rgba(12,255,0,1.00)" />
<rect x="10.25" y="10.25" width="1.025" height="1.025" fill="rgba(0,0,0,1.00)" />
<rect x="11.274999999999999" y="10.25" width="1.025" height="1.025" fill="rgba(0,0,0,1.00)" />
<rect x="12.299999999999999" y="10.25" width="1.025" height="1.025" fill="rgba(0,0,0,1.00)" />
<rect x="13.325" y="10.25" width="1.025" height="1.025" fill="rgba(0,0,0,1.00)" />
<rect x="14.349999999999998" y="10.25" width="1.025" height="1.025" fill="rgba(0,0,0,1.00)" />
<rect x="15.374999999999998" y="10.25" width="1.025" height="1.025" fill="rgba(0,0,0,1.00)" />
<rect x="16.4" y="10.25" width="1.025" height="1.025" fill="rgba(0,0,0,1.00)" />
<rect x="17.424999999999997" y="10.25" width="1.025" height="1.025" fill="rgba(0,0,0,1.00)" />
<rect x="18.45" y="10.25" width="1.025" height="1.025" fill="rgba(0,0,0,1.00)" />
<rect x="19.474999999999998" y="10.25" width="1.025" height="1.025" fill="rgba(0,0,0,1.00)" />
<rect x="20.5" y="10.25" width="1.025" height="1.025" fill="rgba(0,0,0,1.00)" />
<rect x="21.525" y="10.25" width="1.025" height="1.025" fill="rgba(12,255,0,1.00)" />
<rect x="9.225" y="11.274999999999999" width="1.025" height="1.025" fill="rgba(12,255,0,1.00)" />
<rect x="10.25" y="11.274999999999999" width="1.025" height="1.025" fill="rgba(0,0,0,1.00)" />
<rect x="11.274999999999999" y="11.274999999999999" width="1.025" height="1.025" fill="rgba(0,0,0,1.00)" />
<rect x="12.299999999999999" y="11.274999999999999" width="1.025" height="1.025" fill="rgba(0,0,0,1.00)" />
<rect x="13.325" y="11.274999999999999" width="1.025" height="1.025" fill="rgba(0,0,0,1.00)" />
<rect x="14.349999999999998" y="11.274999999999999" width="1.025" height="1.025" fill="rgba(0,0,0,1.00)" />
<rect x="15.374999999999998" y="11.274999999999999" width="1.025" height="1.025" fill="rgba(0,0,0,1.00)" />
<rect x="16.4" y="11.274999999999999" width="1.025" height="1.025" fill="rgba(0,0,0,1.00)" />
<rect x="17.424999999999997" y="11.274999999999999" width="1.025" height="1.025" fill="rgba(0,0,0,1.00)" />
<rect x="18.45" y="11.274999999999999" width="1.025" height="1.025" fill="rgba(0,0,0,1.00)" />
<rect x="19.474999999999998" y="11.274999999999999" width="1.025" height="1.025" fill="rgba(0,0,0,1.00)" />
<rect x="20.5" y="11.274999999999999" width="1.025" height="1.025" fill="rgba(0,0,0,1.00)" />
<rect x="21.525" y="11.274999999999999" width="1.025" height="1.025" fill="rgba(12,255,0,1.00)" />
<rect x="9.225" y="12.299999999999999" width="1.025" height="1.025" fill="rgba(12,255,0,1.00)" />
<rect x="10.25" y="12.299999999999999" width="1.025" height="1.025" fill="rgba(0,0,0,1.00)" />
<rect x="11.274999999999999" y="12.299999999999999" width="1.025" height="1.025" fill="rgba(0,0,0,1.00)" />
<rect x="12.299999999999999" y="12.299999999999999" width="1.025" height="1.025" fill="rgba(0,0,0,1.00)" />
<rect x="13.325" y="12.299999999999999" width="1.025" height="1.025" fill="rgba(0,0,0,1.00)" />
<rect x="14.349999999999998" y="12.299999999999999" width="1.025" height="1.025" fill="rgba(0,0,0,1.00)" />
<rect x="15.374999999999998" y="12.299999999999999" width="1.025" height="1.025" fill="rgba(0,0,0,1.00)" />
<rect x="16.4" y="12.299999999999999" width="1.025" height="1.025" fill="rgba(0,0,0,1.00)" />
<rect x="17.424999999999997" y="12.299999999999999" width="1.025" height="1.025" fill="rgba(0,0,0,1.00)" />
<rect x="18.45" y="12.299999999999999" width="1.025" height="1.025" fill="rgba(0,0,0,1.00)" />
<rect x="19.474999999999998" y="12.299999999999999" width="1.025" height="1.025" fill="rgba(0,0,0,1.00)" />
<rect x="20.5" y="12.299999999999999" width="1.025" height="1.025" fill="rgba(0,0,0,1.00)" />
<rect x="21.525" y="12.299999999999999" width="1.025" height="1.025" fill="rgba(12,255,0,1.00)" />
<rect x="9.225" y="13.325" width="1.025" height="1.025" fill="rgba(12,255,0,1.00)" />
<rect x="10.25" y="13.325" width="1.025" height="1.025" fill="rgba(0,0,0,1.00)" />
<rect x="11.274999999999999" y="13.325" width="1.025" height="1.025" fill="rgba(0,0,0,1.00)" />
<rect x="12.299999999999999" y="13.325" width="1.025" height="1.025" fill="rgba(0,0,0,1.00)" />
<rect x="13.325" y="13.325" width="1.025" height="1.025" fill="rgba(0,0,0,1.00)" />
<rect x="14.349999999999998" y="13.325" width="1.025" height="1.025" fill="rgba(0,0,0,1.00)" />
<rect x="15.374999999999998" y="13.325" width="1.025" height="1.025" fill="rgba(0,0,0,1.00)" />
<rect x="16.4" y="13.325" width="1.025" height="1.025" fill="rgba(0,0,0,1.00)" />
<rect x="17.424999999999997" y="13.325" width="1.025" height="1.025" fill="rgba(0,0,0,1.00)" />
<rect x="18.45" y="13.325" width="1.025" height="1.025" fill="rgba(12,255,0,1.00)" />
<rect x="19.474999999999998" y="13.325" width="1.025" height="1.025" fill="rgba(0,0,0,1.00)" />
<rect x="20.5" y="13.325" width="1.025" height="1.025" fill="rgba(0,0,0,1.00)" />
<rect x="21.525" y="13.325" width="1.025" height="1.025" fill="rgba(12,255,0,1.00)" />
<rect x="9.225" y="14.349999999999998" width="1.025" height="1.025" fill="rgba(12,255,0,1.00)" />
<rect x="10.25" y="14.349999999999998" width="1.025" height="1.025" fill="rgba(0,0,0,1.00)" />
<rect x="11.274999999999999" y="14.349999999999998" width="1.025" height="1.025" fill="rgba(0,0,0,1.00)" />
<rect x="12.299999999999999" y="14.349999999999998" width="1.025" height="1.025" fill="rgba(12,255,0,1.00)" />
<rect x="13.325" y="14.349999999999998" width="1.025" height="1.025" fill="rgba(0,0,0,1.00)" />
<rect x="14.349999999999998" y="14.349999999999998" width="1.025" height="1.025" fill="rgba(0,0,0,1.00)" />
<rect x="15.374999999999998" y="14.349999999999998" width="1.025" height="1.025" fill="rgba(0,0,0,1.00)" />
<rect x="16.4" y="14.349999999999998" width="1.025" height="1.025" fill="rgba(0,0,0,1.00)" />
<rect x="17.424999999999997" y="14.349999999999998" width="1.025" height="1.025" fill="rgba(0,0,0,1.00)" />
<rect x="18.45" y="14.349999999999998" width="1.025" height="1.025" fill="rgba(0,0,0,1.00)" />
<rect x="19.474999999999998" y="14.349999999999998" width="1.025" height="1.025" fill="rgba(12,255,0,1.00)" />
<rect x="20.5" y="14.349999999999998" width="1.025" height="1.025" fill="rgba(0,0,0,1.00)" />
<rect x="21.525" y="14.349999999999998" width="1.025" height="1.025" fill="rgba(12,255,0,1.00)" />
<rect x="9.225" y="15.374999999999998" width="1.025" height="1.025" fill="rgba(12,255,0,1.00)" />
<rect x="10.25" y="15.374999999999998" width="1.025" height="1.025" fill="rgba(0,0,0,1.00)" />
<rect x="11.274999999999999" y="15.374999999999998" width="1.025" height="1.025" fill="rgba(0,0,0,1.00)" />
<rect x="12.299999999999999" y="15.374999999999998" width="1.025" height="1.025" fill="rgba(0,0,0,1.00)" />
<rect x="13.325" y="15.374999999999998" width="1.025" height="1.025" fill="rgba(0,0,0,1.00)" />
<rect x="14.349999999999998" y="15.374999999999998" width="1.025" height="1.025" fill="rgba(0,0,0,1.00)" />
<rect x="15.374999999999998" y="15.374999999999998" width="1.025" height="1.025" fill="rgba(0,0,0,1.00)" />
<rect x="16.4" y="15.374999999999998" width="1.025" height="1.025" fill="rgba(0,0,0,1.00)" />
<rect x="17.424999999999997" y="15.374999999999998" width="1.025" height="1.025" fill="rgba(0,0,0,1.00)" />
<rect x="18.45" y="15.374999999999998" width="1.025" height="1.025" fill="rgba(0,0,0,1.00)" />
<rect x="19.474999999999998" y="15.374999999999998" width="1.025" height="1.025" fill="rgba(12,255,0,1.00)" />
<rect x="20.5" y="15.374999999999998" width="1.025" height="1.025" fill="rgba(0,0,0,1.00)" />
<rect x="21.525" y="15.374999999999998" width="1.025" height="1.025" fill="rgba(12,255,0,1.00)" />
<rect x="8.2" y="16.4" width="1.025" height="1.025" fill="rgba(12,255,0,1.00)" />
<rect x="9.225" y="16.4" width="1.025" height="1.025" fill="rgba(0,0,0,1.00)" />
<rect x="10.25" y="16.4" width="1.025" height="1.025" fill="rgba(0,0,0,1.00)" />
<rect x="11.274999999999999" y="16.4" width="1.025" height="1.025" fill="rgba(0,0,0,1.00)" />
<rect x="12.299999999999999" y="16.4" width="1.025" height="1.025" fill="rgba(0,0,0,1.00)" />
<rect x="13.325" y="16.4" width="1.025" height="1.025" fill="rgba(0,0,0,1.00)" />
<rect x="14.349999999999998" y="16.4" width="1.025" height="1.025" fill="rgba(0,0,0,1.00)" />
<rect x="15.374999999999998" y="16.4" width="1.025" height="1.025" fill="rgba(0,0,0,1.00)" />
<rect x="16.4" y="16.4" width="1.025" height="1.025" fill="rgba(0,0,0,1.00)" />
<rect x="17.424999999999997" y="16.4" width="1.025" height="1.025" fill="rgba(0,0,0,1.00)" />
<rect x="18.45" y="16.4" width="1.025" height="1.025" fill="rgba(0,0,0,1.00)" />
<rect x="19.474999999999998" y="16.4" width="1.025" height="1.025" fill="rgba(12,255,0,1.00)" />
<rect x="20.5" y="16.4" width="1.025" height="1.025" fill="rgba(0,0,0,1.00)" />
<rect x="21.525" y="16.4" width="1.025" height="1.025" fill="rgba(12,255,0,1.00)" />
<rect x="8.2" y="17.424999999999997" width="1.025" height="1.025" fill="rgba(12,255,0,1.00)" />
<rect x="9.225" y="17.424999999999997" width="1.025" height="1.025" fill="rgba(0,0,0,1.00)" />
<rect x="10.25" y="17.424999999999997" width="1.025" height="1.025" fill="rgba(0,0,0,1.00)" />
<rect x="11.274999999999999" y="17.424999999999997" width="1.025" height="1.025" fill="rgba(0,0,0,1.00)" />
<rect x="12.299999999999999" y="17.424999999999997" width="1.025" height="1.025" fill="rgba(0,0,0,1.00)" />
<rect x="13.325" y="17.424999999999997" width="1.025" height="1.025" fill="rgba(0,0,0,1.00)" />
<rect x="14.349999999999998" y="17.424999999999997" width="1.025" height="1.025" fill="rgba(0,0,0,1.00)" />
<rect x="15.374999999999998" y="17.424999999999997" width="1.025" height="1.025" fill="rgba(0,0,0,1.00)" />
<rect x="16.4" y="17.424999999999997" width="1.025" height="1.025" fill="rgba(0,0,0,1.00)" />
<rect x="17.424999999999997" y="17.424999999999997" width="1.025" height="1.025" fill="rgba(0,0,0,1.00)" />
<rect x="18.45" y="17.424999999999997" width="1.025" height="1.025" fill="rgba(12,255,0,1.00)" />
<rect x="19.474999999999998" y="17.424999999999997" width="1.025" height="1.025" fill="rgba(0,0,0,1.00)" />
<rect x="20.5" y="17.424999999999997" width="1.025" height="1.025" fill="rgba(0,0,0,1.00)" />
<rect x="21.525" y="17.424999999999997" width="1.025" height="1.025" fill="rgba(12,255,0,1.00)" />
<rect x="9.225" y="18.45" width="1.025" height="1.025" fill="rgba(12,255,0,1.00)" />
<rect x="10.25" y="18.45" width="1.025" height="1.025" fill="rgba(0,0,0,1.00)" />
<rect x="11.274999999999999" y="18.45" width="1.025" height="1.025" fill="rgba(0,0,0,1.00)" />
<rect x="12.299999999999999" y="18.45" width="1.025" height="1.025" fill="rgba(0,0,0,1.00)" />
<rect x="13.325" y="18.45" width="1.025" height="1.025" fill="rgba(0,0,0,1.00)" />
<rect x="14.349999999999998" y="18.45" width="1.025" height="1.025" fill="rgba(0,0,0,1.00)" />
<rect x="15.374999999999998" y="18.45" width="1.025" height="1.025" fill="rgba(0,0,0,1.00)" />
<rect x="16.4" y="18.45" width="1.025" height="1.025" fill="rgba(0,0,0,1.00)" />
<rect x="17.424999999999997" y="18.45" width="1.025" height="1.025" fill="rgba(0,0,0,1.00)" />
<rect x="18.45" y="18.45" width="1.025" height="1.025" fill="rgba(0,0,0,1.00)" />
<rect x="19.474999999999998" y="18.45" width="1.025" height="1.025" fill="rgba(0,0,0,1.00)" />
<rect x="20.5" y="18.45" width="1.025" height="1.025" fill="rgba(0,0,0,1.00)" />
<rect x="21.525" y="18.45" width="1.025" height="1.025" fill="rgba(12,255,0,1.00)" />
<rect x="9.225" y="19.474999999999998" width="1.025" height="1.025" fill="rgba(12,255,0,1.00)" />
<rect x="10.25" y="19.474999999999998" width="1.025" height="1.025" fill="rgba(0,0,0,1.00)" />
<rect x="11.274999999999999" y="19.474999999999998" width="1.025" height="1.025" fill="rgba(0,0,0,1.00)" />
<rect x="12.299999999999999" y="19.474999999999998" width="1.025" height="1.025" fill="rgba(0,0,0,1.00)" />
<rect x="13.325" y="19.474999999999998" width="1.025" height="1.025" fill="rgba(0,0,0,1.00)" />
<rect x="14.349999999999998" y="19.474999999999998" width="1.025" height="1.025" fill="rgba(0,0,0,1.00)" />
<rect x="15.374999999999998" y="19.474999999999998" width="1.025" height="1.025" fill="rgba(0,0,0,1.00)" />
<rect x="16.4" y="19.474999999999998" width="1.025" height="1.025" fill="rgba(0,0,0,1.00)" />
<rect x="17.424999999999997" y="19.474999999999998" width="1.025" height="1.025" fill="rgba(0,0,0,1.00)" />
<rect x="18.45" y="19.474999999999998" width="1.025" height="1.025" fill="rgba(0,0,0,1.00)" />
<rect x="19.474999999999998" y="19.474999999999998" width="1.025" height="1.025" fill="rgba(0,0,0,1.00)" />
<rect x="20.5" y="19.474999999999998" width="1.025" height="1.025" fill="rgba(0,0,0,1.00)" />
<rect x="21.525" y="19.474999999999998" width="1.025" height="1.025" fill="rgba(12,255,0,1.00)" />
<rect x="10.25" y="20.5" width="1.025" height="1.025" fill="rgba(12,255,0,1.00)" />
<rect x="11.274999999999999" y="20.5" width="1.025" height="1.025" fill="rgba(0,0,0,1.00)" />
<rect x="12.299999999999999" y="20.5" width="1.025" height="1.025" fill="rgba(0,0,0,1.00)" />
<rect x="13.325" y="20.5" width="1.025" height="1.025" fill="rgba(0,0,0,1.00)" />
<rect x="14.349999999999998" y="20.5" width="1.025" height="1.025" fill="rgba(0,0,0,1.00)" />
<rect x="15.374999999999998" y="20.5" width="1.025" height="1.025" fill="rgba(0,0,0,1.00)" />
<rect x="16.4" y="20.5" width="1.025" height="1.025" fill="rgba(0,0,0,1.00)" />
<rect x="17.424999999999997" y="20.5" width="1.025" height="1.025" fill="rgba(0,0,0,1.00)" />
<rect x="18.45" y="20.5" width="1.025" height="1.025" fill="rgba(0,0,0,1.00)" />
<rect x="19.474999999999998" y="20.5" width="1.025" height="1.025" fill="rgba(0,0,0,1.00)" />
<rect x="20.5" y="20.5" width="1.025" height="1.025" fill="rgba(0,0,0,1.00)" />
<rect x="21.525" y="20.5" width="1.025" height="1.025" fill="rgba(12,255,0,1.00)" />
<rect x="9.225" y="21.525" width="1.025" height="1.025" fill="rgba(12,255,0,1.00)" />
<rect x="10.25" y="21.525" width="1.025" height="1.025" fill="rgba(0,0,0,1.00)" />
<rect x="11.274999999999999" y="21.525" width="1.025" height="1.025" fill="rgba(0,0,0,1.00)" />
<rect x="12.299999999999999" y="21.525" width="1.025" height="1.025" fill="rgba(0,0,0,1.00)" />
<rect x="13.325" y="21.525" width="1.025" height="1.025" fill="rgba(0,0,0,1.00)" />
<rect x="14.349999999999998" y="21.525" width="1.025" height="1.025" fill="rgba(0,0,0,1.00)" />
<rect x="15.374999999999998" y="21.525" width="1.025" height="1.025" fill="rgba(0,0,0,1.00)" />
<rect x="16.4" y="21.525" width="1.025" height="1.025" fill="rgba(0,0,0,1.00)" />
<rect x="17.424999999999997" y="21.525" width="1.025" height="1.025" fill="rgba(0,0,0,1.00)" />
<rect x="18.45" y="21.525" width="1.025" height="1.025" fill="rgba(0,0,0,1.00)" />
<rect x="19.474999999999998" y="21.525" width="1.025" height="1.025" fill="rgba(0,0,0,1.00)" />
<rect x="20.5" y="21.525" width="1.025" height="1.025" fill="rgba(0,0,0,1.00)" />
<rect x="21.525" y="21.525" width="1.025" height="1.025" fill="rgba(12,255,0,1.00)" />
<rect x="9.225" y="22.549999999999997" width="1.025" height="1.025" fill="rgba(12,255,0,1.00)" />
<rect x="10.25" y="22.549999999999997" width="1.025" height="1.025" fill="rgba(0,0,0,1.00)" />
<rect x="11.274999999999999" y="22.549999999999997" width="1.025" height="1.025" fill="rgba(0,0,0,1.00)" />
<rect x="12.299999999999999" y="22.549999999999997" width="1.025" height="1.025" fill="rgba(0,0,0,1.00)" />
<rect x="13.325" y="22.549999999999997" width="1.025" height="1.025" fill="rgba(0,0,0,1.00)" />
<rect x="14.349999999999998" y="22.549999999999997" width="1.025" height="1.025" fill="rgba(0,0,0,1.00)" />
<rect x="15.374999999999998" y="22.549999999999997" width="1.025" height="1.025" fill="rgba(0,0,0,1.00)" />
<rect x="16.4" y="22.549999999999997" width="1.025" height="1.025" fill="rgba(0,0,0,1.00)" />
<rect x="17.424999999999997" y="22.549999999999997" width="1.025" height="1.025" fill="rgba(0,0,0,1.00)" />
<rect x="18.45" y="22.549999999999997" width="1.025" height="1.025" fill="rgba(0,0,0,1.00)" />
<rect x="19.474999999999998" y="22.549999999999997" width="1.025" height="1.025" fill="rgba(0,0,0,1.00)" />
<rect x="20.5" y="22.549999999999997" width="1.025" height="1.025" fill="rgba(12,255,0,1.00)" />
<rect x="10.25" y="23.575" width="1.025" height="1.025" fill="rgba(12,255,0,1.00)" />
<rect x="11.274999999999999" y="23.575" width="1.025" height="1.025" fill="rgba(0,0,0,1.00)" />
<rect x="12.299999999999999" y="23.575" width="1.025" height="1.025" fill="rgba(0,0,0,1.00)" />
<rect x="13.325" y="23.575" width="1.025" height="1.025" fill="rgba(0,0,0,1.00)" />
<rect x="14.349999999999998" y="23.575" width="1.025" height="1.025" fill="rgba(0,0,0,1.00)" />
<rect x="15.374999999999998" y="23.575" width="1.025" height="1.025" fill="rgba(0,0,0,1.00)" />
<rect x="16.4" y="23.575" width="1.025" height="1.025" fill="rgba(0,0,0,1.00)" />
<rect x="17.424999999999997" y="23.575" width="1.025" height="1.025" fill="rgba(0,0,0,1.00)" />
<rect x="18.45" y="23.575" width="1.025" height="1.025" fill="rgba(12,255,0,1.00)" />
<rect x="19.474999999999998" y="23.575" width="1.025" height="1.025" fill="rgba(0,0,0,1.00)" />
<rect x="20.5" y="23.575" width="1.025" height="1.025" fill="rgba(12,255,0,1.00)" />
<rect x="11.274999999999999" y="24.599999999999998" width="1.025" height="1.025" fill="rgba(12,255,0,1.00)" />
<rect x="12.299999999999999" y="24.599999999999998" width="1.025" height="1.025" fill="rgba(12,255,0,1.00)" />
<rect x="13.325" y="24.599999999999998" width="1.025" height="1.025" fill="rgba(12,255,0,1.00)" />
<rect x="14.349999999999998" y="24.599999999999998" width="1.025" height="1.025" fill="rgba(12,255,0,1.00)" />
<rect x="15.374999999999998" y="24.599999999999998" width="1.025" height="1.025" fill="rgba(12,255,0,1.00)" />
<rect x="16.4" y="24.599999999999998" width="1.025" height="1.025" fill="rgba(12,255,0,1.00)" />
<rect x="17.424999999999997" y="24.599999999999998" width="1.025" height="1.025" fill="rgba(12,255,0,1.00)" />
<rect x="18.45" y="24.599999999999998" width="1.025" height="1.025" fill="rgba(0,0,0,1.00)" />
<rect x="19.474999999999998" y="24.599999999999998" width="1.025" height="1.025" fill="rgba(0,0,0,1.00)" />
<rect x="20.5" y="24.599999999999998" width="1.025" height="1.025" fill="rgba(12,255,0,1.00)" />
<rect x="15.374999999999998" y="25.624999999999996" width="1.025" height="1.025" fill="rgba(12,255,0,1.00)" />
<rect x="16.4" y="25.624999999999996" width="1.025" height="1.025" fill="rgba(0,0,0,1.00)" />
<rect x="17.424999999999997" y="25.624999999999996" width="1.025" height="1.025" fill="rgba(0,0,0,1.00)" />
<rect x="18.45" y="25.624999999999996" width="1.025" height="1.025" fill="rgba(0,0,0,1.00)" />
<rect x="19.474999999999998" y="25.624999999999996" width="1.025" height="1.025" fill="rgba(0,0,0,1.00)" />
<rect x="20.5" y="25.624999999999996" width="1.025" height="1.025" fill="rgba(12,255,0,1.00)" />
<rect x="15.374999999999998" y="26.65" width="1.025" height="1.025" fill="rgba(12,255,0,1.00)" />
<rect x="16.4" y="26.65" width="1.025" height="1.025" fill="rgba(0,0,0,1.00)" />
<rect x="17.424999999999997" y="26.65" width="1.025" height="1.025" fill="rgba(0,0,0,1.00)" />
<rect x="18.45" y="26.65" width="1.025" height="1.025" fill="rgba(0,0,0,1.00)" />
<rect x="19.474999999999998" y="26.65" width="1.025" height="1.025" fill="rgba(0,0,0,1.00)" />
<rect x="20.5" y="26.65" width="1.025" height="1.025" fill="rgba(12,255,0,1.00)" />
<rect x="15.374999999999998" y="27.674999999999997" width="1.025" height="1.025" fill="rgba(12,255,0,1.00)" />
<rect x="16.4" y="27.674999999999997" width="1.025" height="1.025" fill="rgba(0,0,0,1.00)" />
<rect x="17.424999999999997" y="27.674999999999997" width="1.025" height="1.025" fill="rgba(0,0,0,1.00)" />
<rect x="18.45" y="27.674999999999997" width="1.025" height="1.025" fill="rgba(0,0,0,1.00)" />
<rect x="19.474999999999998" y="27.674999999999997" width="1.025" height="1.025" fill="rgba(0,0,0,1.00)" />
<rect x="20.5" y="27.674999999999997" width="1.025" height="1.025" fill="rgba(12,255,0,1.00)" />
<rect x="15.374999999999998" y="28.699999999999996" width="1.025" height="1.025" fill="rgba(12,255,0,1.00)" />
<rect x="16.4" y="28.699999999999996" width="1.025" height="1.025" fill="rgba(0,0,0,1.00)" />
<rect x="17.424999999999997" y="28.699999999999996" width="1.025" height="1.025" fill="rgba(0,0,0,1.00)" />
<rect x="18.45" y="28.699999999999996" width="1.025" height="1.025" fill="rgba(0,0,0,1.00)" />
<rect x="19.474999999999998" y="28.699999999999996" width="1.025" height="1.025" fill="rgba(0,0,0,1.00)" />
<rect x="20.5" y="28.699999999999996" width="1.025" height="1.025" fill="rgba(0,0,0,1.00)" />
<rect x="21.525" y="28.699999999999996" width="1.025" height="1.025" fill="rgba(12,255,0,1.00)" />
<rect x="22.549999999999997" y="28.699999999999996" width="1.025" height="1.025" fill="rgba(12,255,0,1.00)" />
<rect x="14.349999999999998" y="29.724999999999998" width="1.025" height="1.025" fill="rgba(12,255,0,1.00)" />
<rect x="15.374999999999998" y="29.724999999999998" width="1.025" height="1.025" fill="rgba(0,0,0,1.00)" />
<rect x="16.4" y="29.724999999999998" width="1.025" height="1.025" fill="rgba(0,0,0,1.00)" />
<rect x="17.424999999999997" y="29.724999999999998" width="1.025" height="1.025" fill="rgba(0,0,0,1.00)" />
<rect x="18.45" y="29.724999999999998" width="1.025" height="1.025" fill="rgba(0,0,0,1.00)" />
<rect x="19.474999999999998" y="29.724999999999998" width="1.025" height="1.025" fill="rgba(0,0,0,1.00)" />
<rect x="20.5" y="29.724999999999998" width="1.025" height="1.025" fill="rgba(0,0,0,1.00)" />
<rect x="21.525" y="29.724999999999998" width="1.025" height="1.025" fill="rgba(0,0,0,1.00)" />
<rect x="22.549999999999997" y="29.724999999999998" width="1.025" height="1.025" fill="rgba(0,0,0,1.00)" />
<rect x="23.575" y="29.724999999999998" width="1.025" height="1.025" fill="rgba(12,255,0,1.00)" />
<rect x="13.325" y="30.749999999999996" width="1.025" height="1.025" fill="rgba(12,255,0,1.00)" />
<rect x="14.349999999999998" y="30.749999999999996" width="1.025" height="1.025" fill="rgba(0,0,0,1.00)" />
<rect x="15.374999999999998" y="30.749999999999996" width="1.025" height="1.025" fill="rgba(0,0,0,1.00)" />
<rect x="16.4" y="30.749999999999996" width="1.025" height="1.025" fill="rgba(0,0,0,1.00)" />
<rect x="17.424999999999997" y="30.749999999999996" width="1.025" height="1.025" fill="rgba(0,0,0,1.00)" />
<rect x="18.45" y="30.749999999999996" width="1.025" height="1.025" fill="rgba(0,0,0,1.00)" />
<rect x="19.474999999999998" y="30.749999999999996" width="1.025" height="1.025" fill="rgba(0,0,0,1.00)" />
<rect x="20.5" y="30.749999999999996" width="1.025" height="1.025" fill="rgba(0,0,0,1.00)" />
<rect x="21.525" y="30.749999999999996" width="1.025" height="1.025" fill="rgba(0,0,0,1.00)" />
<rect x="22.549999999999997" y="30.749999999999996" width="1.025" height="1.025" fill="rgba(0,0,0,1.00)" />
<rect x="23.575" y="30.749999999999996" width="1.025" height="1.025" fill="rgba(0,0,0,1.00)" />
<rect x="24.599999999999998" y="30.749999999999996" width="1.025" height="1.025" fill="rgba(12,255,0,1.00)" />
<rect x="12.299999999999999" y="31.775" width="1.025" height="1.025" fill="rgba(12,255,0,1.00)" />
<rect x="13.325" y="31.775" width="1.025" height="1.025" fill="rgba(0,0,0,1.00)" />
<rect x="14.349999999999998" y="31.775" width="1.025" height="1.025" fill="rgba(0,0,0,1.00)" />
<rect x="15.374999999999998" y="31.775" width="1.025" height="1.025" fill="rgba(0,0,0,1.00)" />
<rect x="16.4" y="31.775" width="1.025" height="1.025" fill="rgba(0,0,0,1.00)" />
<rect x="17.424999999999997" y="31.775" width="1.025" height="1.025" fill="rgba(0,0,0,1.00)" />
<rect x="18.45" y="31.775" width="1.025" height="1.025" fill="rgba(0,0,0,1.00)" />
<rect x="19.474999999999998" y="31.775" width="1.025" height="1.025" fill="rgba(0,0,0,1.00)" />
<rect x="20.5" y="31.775" width="1.025" height="1.025" fill="rgba(0,0,0,1.00)" />
<rect x="21.525" y="31.775" width="1.025" height="1.025" fill="rgba(0,0,0,1.00)" />
<rect x="22.549999999999997" y="31.775" width="1.025" height="1.025" fill="rgba(0,0,0,1.00)" />
<rect x="23.575" y="31.775" width="1.025" height="1.025" fill="rgba(0,0,0,1.00)" />
<rect x="24.599999999999998" y="31.775" width="1.025" height="1.025" fill="rgba(12,255,0,1.00)" />
<rect x="11.274999999999999" y="32.8" width="1.025" height="1.025" fill="rgba(12,255,0,1.00)" />
<rect x="12.299999999999999" y="32.8" width="1.025" height="1.025" fill="rgba(0,0,0,1.00)" />
<rect x="13.325" y="32.8" width="1.025" height="1.025" fill="rgba(0,0,0,1.00)" />
<rect x="14.349999999999998" y="32.8" width="1.025" height="1.025" fill="rgba(0,0,0,1.00)" />
<rect x="15.374999999999998" y="32.8" width="1.025" height="1.025" fill="rgba(0,0,0,1.00)" />
<rect x="16.4" y="32.8" width="1.025" height="1.025" fill="rgba(0,0,0,1.00)" />
<rect x="17.424999999999997" y="32.8" width="1.025" height="1.025" fill="rgba(0,0,0,1.00)" />
<rect x="18.45" y="32.8" width="1.025" height="1.025" fill="rgba(0,0,0,1.00)" />
<rect x="19.474999999999998" y="32.8" width="1.025" height="1.025" fill="rgba(0,0,0,1.00)" />
<rect x="20.5" y="32.8" width="1.025" height="1.025" fill="rgba(0,0,0,1.00)" />
<rect x="21.525" y="32.8" width="1.025" height="1.025" fill="rgba(0,0,0,1.00)" />
<rect x="22.549999999999997" y="32.8" width="1.025" height="1.025" fill="rgba(0,0,0,1.00)" />
<rect x="23.575" y="32.8" width="1.025" height="1.025" fill="rgba(0,0,0,1.00)" />
<rect x="24.599999999999998" y="32.8" width="1.025" height="1.025" fill="rgba(0,0,0,1.00)" />
<rect x="25.624999999999996" y="32.8" width="1.025" height="1.025" fill="rgba(12,255,0,1.00)" />
<rect x="11.274999999999999" y="33.824999999999996" width="1.025" height="1.025" fill="rgba(12,255,0,1.00)" />
<rect x="12.299999999999999" y="33.824999999999996" width="1.025" height="1.025" fill="rgba(0,0,0,1.00)" />
<rect x="13.325" y="33.824999999999996" width="1.025" height="1.025" fill="rgba(0,0,0,1.00)" />
<rect x="14.349999999999998" y="33.824999999999996" width="1.025" height="1.025" fill="rgba(0,0,0,1.00)" />
<rect x="15.374999999999998" y="33.824999999999996" width="1.025" height="1.025" fill="rgba(0,0,0,1.00)" />
<rect x="16.4" y="33.824999999999996" width="1.025" height="1.025" fill="rgba(0,0,0,1.00)" />
<rect x="17.424999999999997" y="33.824999999999996" width="1.025" height="1.025" fill="rgba(0,0,0,1.00)" />
<rect x="18.45" y="33.824999999999996" width="1.025" height="1.025" fill="rgba(0,0,0,1.00)" />
<rect x="19.474999999999998" y="33.824999999999996" width="1.025" height="1.025" fill="rgba(0,0,0,1.00)" />
<rect x="20.5" y="33.824999999999996" width="1.025" height="1.025" fill="rgba(0,0,0,1.00)" />
<rect x="21.525" y="33.824999999999996" width="1.025" height="1.025" fill="rgba(0,0,0,1.00)" />
<rect x="22.549999999999997" y="33.824999999999996" width="1.025" height="1.025" fill="rgba(0,0,0,1.00)" />
<rect x="23.575" y="33.824999999999996" width="1.025" height="1.025" fill="rgba(0,0,0,1.00)" />
<rect x="24.599999999999998" y="33.824999999999996" width="1.025" height="1.025" fill="rgba(0,0,0,1.00)" />
<rect x="25.624999999999996" y="33.824999999999996" width="1.025" height="1.025" fill="rgba(12,255,0,1.00)" />
<rect x="11.274999999999999" y="34.849999999999994" width="1.025" height="1.025" fill="rgba(12,255,0,1.00)" />
<rect x="12.299999999999999" y="34.849999999999994" width="1.025" height="1.025" fill="rgba(0,0,0,1.00)" />
<rect x="13.325" y="34.849999999999994" width="1.025" height="1.025" fill="rgba(0,0,0,1.00)" />
<rect x="14.349999999999998" y="34.849999999999994" width="1.025" height="1.025" fill="rgba(0,0,0,1.00)" />
<rect x="15.374999999999998" y="34.849999999999994" width="1.025" height="1.025" fill="rgba(12,255,0,1.00)" />
<rect x="16.4" y="34.849999999999994" width="1.025" height="1.025" fill="rgba(0,0,0,1.00)" />
<rect x="17.424999999999997" y="34.849999999999994" width="1.025" height="1.025" fill="rgba(0,0,0,1.00)" />
<rect x="18.45" y="34.849999999999994" width="1.025" height="1.025" fill="rgba(0,0,0,1.00)" />
<rect x="19.474999999999998" y="34.849999999999994" width="1.025" height="1.025" fill="rgba(0,0,0,1.00)" />
<rect x="20.5" y="34.849999999999994" width="1.025" height="1.025" fill="rgba(12,255,0,1.00)" />
<rect x="21.525" y="34.849999999999994" width="1.025" height="1.025" fill="rgba(0,0,0,1.00)" />
<rect x="22.549999999999997" y="34.849999999999994" width="1.025" height="1.025" fill="rgba(0,0,0,1.00)" />
<rect x="23.575" y="34.849999999999994" width="1.025" height="1.025" fill="rgba(0,0,0,1.00)" />
<rect x="24.599999999999998" y="34.849999999999994" width="1.025" height="1.025" fill="rgba(0,0,0,1.00)" />
<rect x="25.624999999999996" y="34.849999999999994" width="1.025" height="1.025" fill="rgba(12,255,0,1.00)" />
<rect x="11.274999999999999" y="35.875" width="1.025" height="1.025" fill="rgba(12,255,0,1.00)" />
<rect x="12.299999999999999" y="35.875" width="1.025" height="1.025" fill="rgba(0,0,0,1.00)" />
<rect x="13.325" y="35.875" width="1.025" height="1.025" fill="rgba(0,0,0,1.00)" />
<rect x="14.349999999999998" y="35.875" width="1.025" height="1.025" fill="rgba(0,0,0,1.00)" />
<rect x="15.374999999999998" y="35.875" width="1.025" height="1.025" fill="rgba(12,255,0,1.00)" />
<rect x="16.4" y="35.875" width="1.025" height="1.025" fill="rgba(0,0,0,1.00)" />
<rect x="17.424999999999997" y="35.875" width="1.025" height="1.025" fill="rgba(0,0,0,1.00)" />
<rect x="18.45" y="35.875" width="1.025" height="1.025" fill="rgba(0,0,0,1.00)" />
<rect x="19.474999999999998" y="35.875" width="1.025" height="1.025" fill="rgba(0,0,0,1.00)" />
<rect x="20.5" y="35.875" width="1.025" height="1.025" fill="rgba(12,255,0,1.00)" />
<rect x="21.525" y="35.875" width="1.025" height="1.025" fill="rgba(0,0,0,1.00)" />
<rect x="22.549999999999997" y="35.875" width="1.025" height="1.025" fill="rgba(0,0,0,1.00)" />
<rect x="23.575" y="35.875" width="1.025" height="1.025" fill="rgba(0,0,0,1.00)" />
<rect x="24.599999999999998" y="35.875" width="1.025" height="1.025" fill="rgba(0,0,0,1.00)" />
<rect x="25.624999999999996" y="35.875" width="1.025" height="1.025" fill="rgba(12,255,0,1.00)" />
<rect x="11.274999999999999" y="36.9" width="1.025" height="1.025" fill="rgba(12,255,0,1.00)" />
<rect x="12.299999999999999" y="36.9" width="1.025" height="1.025" fill="rgba(0,0,0,1.00)" />
<rect x="13.325" y="36.9" width="1.025" height="1.025" fill="rgba(0,0,0,1.00)" />
<rect x="14.349999999999998" y="36.9" width="1.025" height="1.025" fill="rgba(0,0,0,1.00)" />
<rect x="15.374999999999998" y="36.9" width="1.025" height="1.025" fill="rgba(12,255,0,1.00)" />
<rect x="16.4" y="36.9" width="1.025" height="1.025" fill="rgba(0,0,0,1.00)" />
<rect x="17.424999999999997" y="36.9" width="1.025" height="1.025" fill="rgba(0,0,0,1.00)" />
<rect x="18.45" y="36.9" width="1.025" height="1.025" fill="rgba(0,0,0,1.00)" />
<rect x="19.474999999999998" y="36.9" width="1.025" height="1.025" fill="rgba(0,0,0,1.00)" />
<rect x="20.5" y="36.9" width="1.025" height="1.025" fill="rgba(12,255,0,1.00)" />
<rect x="21.525" y="36.9" width="1.025" height="1.025" fill="rgba(0,0,0,1.00)" />
<rect x="22.549999999999997" y="36.9" width="1.025" height="1.025" fill="rgba(0,0,0,1.00)" />
<rect x="23.575" y="36.9" width="1.025" height="1.025" fill="rgba(0,0,0,1.00)" />
<rect x="24.599999999999998" y="36.9" width="1.025" height="1.025" fill="rgba(0,0,0,1.00)" />
<rect x="25.624999999999996" y="36.9" width="1.025" height="1.025" fill="rgba(12,255,0,1.00)" />
</svg>