<?xml version="1.0" encoding="UTF-8"?>
<svg id="Ebene_2" data-name="Ebene 2" xmlns="http://www.w3.org/2000/svg" viewBox="0 0 768 1024">
  <defs>
    <style>
      .cls-1 {
        fill: #fff;
      }

      .cls-2 {
        fill: red;
      }

      .cls-3 {
        fill: aqua;
      }
    </style>
  </defs>
  <path d="M722.57,38.92v931.23H48.22V38.92h674.35M727.57,33.92H43.22v941.23h684.35V33.92h0Z"/>
  <rect x="43.22" y="33.92" width="684.35" height="164.84"/>
  <g>
    <g>
      <path class="cls-1" d="M150.15,158.34h-24v-12h-12v-12h-12v12h-12v12h-24v-84h24v48h12v-12h12v12h12v-48h24v84Z"/>
      <path class="cls-1" d="M220.73,158.34v-36h-24v36h-24v-72h12v-12h48v12h12v72h-24ZM220.73,110.34v-24h-24v24h24Z"/>
      <path class="cls-1" d="M303.66,122.34v-12h-12v48h-24v-84h24v12h12v12h12v12h12v-36h24v84h-24v-24h-12v-12h-12Z"/>
      <path class="cls-1" d="M447.83,74.34v12h-24v72h-24v-72h-24v-12h72Z"/>
      <path class="cls-1" d="M472.1,74.34h72v12h-48v24h24v12h-24v24h48v12h-72v-84Z"/>
      <path class="cls-1" d="M629.85,146.34h-12v12h-48v-84h48v12h12v12h12v36h-12v12ZM593.85,146.34h12v-12h12v-36h-12v-12h-12v60Z"/>
      <path class="cls-1" d="M701.85,74.34v48h-24v-48h24ZM701.85,146.34v12h-24v-12h24Z"/>
    </g>
    <g>
      <path class="cls-3" d="M144.15,158.34h-24v-12h-12v-12h-12v12h-12v12h-24v-84h24v48h12v-12h12v12h12v-48h24v84Z"/>
      <path class="cls-3" d="M214.73,158.34v-36h-24v36h-24v-72h12v-12h48v12h12v72h-24ZM214.73,110.34v-24h-24v24h24Z"/>
      <path class="cls-3" d="M297.66,122.34v-12h-12v48h-24v-84h24v12h12v12h12v12h12v-36h24v84h-24v-24h-12v-12h-12Z"/>
      <path class="cls-3" d="M441.83,74.34v12h-24v72h-24v-72h-24v-12h72Z"/>
      <path class="cls-3" d="M466.1,74.34h72v12h-48v24h24v12h-24v24h48v12h-72v-84Z"/>
      <path class="cls-3" d="M623.85,146.34h-12v12h-48v-84h48v12h12v12h12v36h-12v12ZM587.85,146.34h12v-12h12v-36h-12v-12h-12v60Z"/>
      <path class="cls-3" d="M695.85,74.34v48h-24v-48h24ZM695.85,146.34v12h-24v-12h24Z"/>
    </g>
    <g>
      <path class="cls-2" d="M156.15,158.34h-24v-12h-12v-12h-12v12h-12v12h-24v-84h24v48h12v-12h12v12h12v-48h24v84Z"/>
      <path class="cls-2" d="M226.73,158.34v-36h-24v36h-24v-72h12v-12h48v12h12v72h-24ZM226.73,110.34v-24h-24v24h24Z"/>
      <path class="cls-2" d="M309.66,122.34v-12h-12v48h-24v-84h24v12h12v12h12v12h12v-36h24v84h-24v-24h-12v-12h-12Z"/>
      <path class="cls-2" d="M453.83,74.34v12h-24v72h-24v-72h-24v-12h72Z"/>
      <path class="cls-2" d="M478.1,74.34h72v12h-48v24h24v12h-24v24h48v12h-72v-84Z"/>
      <path class="cls-2" d="M635.85,146.34h-12v12h-48v-84h48v12h12v12h12v36h-12v12ZM599.85,146.34h12v-12h12v-36h-12v-12h-12v60Z"/>
      <path class="cls-2" d="M707.85,74.34v48h-24v-48h24ZM707.85,146.34v12h-24v-12h24Z"/>
    </g>
    <g>
      <path class="cls-1" d="M150.15,158.34h-24v-12h-12v-12h-12v12h-12v12h-24v-84h24v48h12v-12h12v12h12v-48h24v84Z"/>
      <path class="cls-1" d="M220.73,158.34v-36h-24v36h-24v-72h12v-12h48v12h12v72h-24ZM220.73,110.34v-24h-24v24h24Z"/>
      <path class="cls-1" d="M303.66,122.34v-12h-12v48h-24v-84h24v12h12v12h12v12h12v-36h24v84h-24v-24h-12v-12h-12Z"/>
      <path class="cls-1" d="M447.83,74.34v12h-24v72h-24v-72h-24v-12h72Z"/>
      <path class="cls-1" d="M472.1,74.34h72v12h-48v24h24v12h-24v24h48v12h-72v-84Z"/>
      <path class="cls-1" d="M629.85,146.34h-12v12h-48v-84h48v12h12v12h12v36h-12v12ZM593.85,146.34h12v-12h12v-36h-12v-12h-12v60Z"/>
      <path class="cls-1" d="M701.85,74.34v48h-24v-48h24ZM701.85,146.34v12h-24v-12h24Z"/>
    </g>
  </g>
</svg>