{
  "accessors": [
    {
      "bufferView": 0,
      "componentType": 5125,
      "count": 53394,
      "type": "SCALAR"
    },
    {
      "bufferView": 1,
      "componentType": 5126,
      "count": 10857,
      "max": [
        0.017834743968753702,
        0.01182114228401561,
        0.014941035530928355
      ],
      "min": [
        -0.017834743968753702,
        -0.01182114228401561,
        -0.014941035530928352
      ],
      "type": "VEC3"
    },
    {
      "bufferView": 2,
      "componentType": 5126,
      "count": 10857,
      "max": [
        1.0,
        1.0,
        0.9999261850685861
      ],
      "min": [
        -1.0,
        -1.0,
        -0.9999261850685861
      ],
      "type": "VEC3"
    },
    {
      "bufferView": 3,
      "componentType": 5126,
      "count": 10857,
      "max": [
        0.9975214511784569,
        1.0
      ],
      "min": [
        0.0,
        0.0
      ],
      "type": "VEC2"
    }
  ],
  "asset": {
    "generator": "Adobe Illustrator",
    "version": "2.0"
  },
  "bufferViews": [
    {
      "buffer": 0,
      "byteLength": 213576,
      "target": 34963
    },
    {
      "buffer": 0,
      "byteLength": 130284,
      "byteOffset": 213576,
      "target": 34962
    },
    {
      "buffer": 0,
      "byteLength": 130284,
      "byteOffset": 343860,
      "target": 34962
    },
    {
      "buffer": 0,
      "byteLength": 86856,
      "byteOffset": 474144,
      "target": 34962
    }
  ],
  "buffers": [
    {
      "byteLength": 561000,
      "uri": "data:application/octet-stream;base64,"
    }
  ],
  "materials": [
    {
      "doubleSided": true,
      "pbrMetallicRoughness": {
        "baseColorFactor": [
          0.0,
          0.9765624403953552,
          0.4101562798023224,
          1.0
        ],
        "metallicFactor": 0.0,
        "roughnessFactor": 0.4000000059604645
      }
    }
  ],
  "meshes": [
    {
      "primitives": [
        {
          "attributes": {
            "NORMAL": 2,
            "POSITION": 1,
            "TEXCOORD_0": 3
          },
          "indices": 0,
          "material": 0,
          "mode": 4
        }
      ]
    }
  ],
  "nodes": [
    {
      "mesh": 0
    }
  ],
  "scenes": [
    {
      "nodes": [
        0
      ]
    }
  ]
}
