{
  "accessors": [
    {
      "bufferView": 0,
      "componentType": 5125,
      "count": 144,
      "type": "SCALAR"
    },
    {
      "bufferView": 1,
      "componentType": 5126,
      "count": 56,
      "max": [
        0.0006999999835447246,
        0.012774999676461458,
        0.008503936793046497
      ],
      "min": [
        -0.0027999999296676598,
        0.0092749997665087,
        -0.0085039367930465
      ],
      "type": "VEC3"
    },
    {
      "bufferView": 2,
      "componentType": 5126,
      "count": 56,
      "max": [
        1.0,
        1.0,
        1.0
      ],
      "min": [
        -1.0,
        -1.0,
        -1.0
      ],
      "type": "VEC3"
    },
    {
      "bufferView": 3,
      "componentType": 5126,
      "count": 56,
      "max": [
        1.0,
        0.9024373889266614
      ],
      "min": [
        0.0,
        0.0
      ],
      "type": "VEC2"
    },
    {
      "bufferView": 4,
      "componentType": 5125,
      "count": 144,
      "type": "SCALAR"
    },
    {
      "bufferView": 5,
      "componentType": 5126,
      "count": 56,
      "max": [
        -0.010149999744805974,
        -0.0040249998962826605,
        0.0085039367930465
      ],
      "min": [
        -0.013649999653128908,
        -0.012774999679313608,
        -0.0085039367930465
      ],
      "type": "VEC3"
    },
    {
      "bufferView": 6,
      "componentType": 5126,
      "count": 56,
      "max": [
        1.0,
        1.0,
        1.0
      ],
      "min": [
        -1.0,
        -1.0,
        -1.0
      ],
      "type": "VEC3"
    },
    {
      "bufferView": 7,
      "componentType": 5126,
      "count": 56,
      "max": [
        0.9492724706283292,
        1.0
      ],
      "min": [
        0.0,
        0.0
      ],
      "type": "VEC2"
    },
    {
      "bufferView": 8,
      "componentType": 5125,
      "count": 168,
      "type": "SCALAR"
    },
    {
      "bufferView": 9,
      "componentType": 5126,
      "count": 70,
      "max": [
        0.017149999564723115,
        -0.0022749999396764753,
        0.008503936793046497
      ],
      "min": [
        0.006649999834864875,
        -0.014524999635919793,
        -0.0085039367930465
      ],
      "type": "VEC3"
    },
    {
      "bufferView": 10,
      "componentType": 5126,
      "count": 70,
      "max": [
        1.0,
        1.0,
        1.0
      ],
      "min": [
        -1.0,
        -1.0,
        -1.0
      ],
      "type": "VEC3"
    },
    {
      "bufferView": 11,
      "componentType": 5126,
      "count": 70,
      "max": [
        1.0,
        0.8699775756723392
      ],
      "min": [
        0.0,
        0.0
      ],
      "type": "VEC2"
    },
    {
      "bufferView": 12,
      "componentType": 5125,
      "count": 168,
      "type": "SCALAR"
    },
    {
      "bufferView": 13,
      "componentType": 5126,
      "count": 70,
      "max": [
        0.0052499998653424,
        -0.0022749999396764753,
        0.008503936793046497
      ],
      "min": [
        -0.005249999864515839,
        -0.014524999635919793,
        -0.0085039367930465
      ],
      "type": "VEC3"
    },
    {
      "bufferView": 14,
      "componentType": 5126,
      "count": 70,
      "max": [
        1.0,
        1.0,
        1.0
      ],
      "min": [
        -1.0,
        -1.0,
        -1.0
      ],
      "type": "VEC3"
    },
    {
      "bufferView": 15,
      "componentType": 5126,
      "count": 70,
      "max": [
        1.0,
        0.8699775756723392
      ],
      "min": [
        0.0,
        0.0
      ],
      "type": "VEC2"
    },
    {
      "bufferView": 16,
      "componentType": 5125,
      "count": 168,
      "type": "SCALAR"
    },
    {
      "bufferView": 17,
      "componentType": 5126,
      "count": 70,
      "max": [
        -0.0076999998075130555,
        0.01452499963591981,
        0.0085039367930465
      ],
      "min": [
        -0.01819999953737131,
        0.002274999939676489,
        -0.0085039367930465
      ],
      "type": "VEC3"
    },
    {
      "bufferView": 18,
      "componentType": 5126,
      "count": 70,
      "max": [
        1.0,
        1.0,
        1.0
      ],
      "min": [
        -1.0,
        -1.0,
        -1.0
      ],
      "type": "VEC3"
    },
    {
      "bufferView": 19,
      "componentType": 5126,
      "count": 70,
      "max": [
        1.0,
        0.8699775756723392
      ],
      "min": [
        0.0,
        0.0
      ],
      "type": "VEC2"
    },
    {
      "bufferView": 20,
      "componentType": 5125,
      "count": 216,
      "type": "SCALAR"
    },
    {
      "bufferView": 21,
      "componentType": 5126,
      "count": 84,
      "max": [
        0.012949999671638943,
        0.012774999679313628,
        0.008503936793046497
      ],
      "min": [
        0.009449999763316022,
        0.004024999896282681,
        -0.0085039367930465
      ],
      "type": "VEC3"
    },
    {
      "bufferView": 22,
      "componentType": 5126,
      "count": 84,
      "max": [
        1.0,
        1.0,
        1.0
      ],
      "min": [
        -1.0,
        -1.0,
        -1.0
      ],
      "type": "VEC3"
    },
    {
      "bufferView": 23,
      "componentType": 5126,
      "count": 84,
      "max": [
        1.0,
        0.9987177973821613
      ],
      "min": [
        0.0,
        0.0
      ],
      "type": "VEC2"
    },
    {
      "bufferView": 24,
      "componentType": 5125,
      "count": 288,
      "type": "SCALAR"
    },
    {
      "bufferView": 25,
      "componentType": 5126,
      "count": 112,
      "max": [
        0.004199999891867631,
        0.014524999635919824,
        0.008503936793046497
      ],
      "min": [
        -0.006299999837990622,
        0.002274999939676496,
        -0.0085039367930465
      ],
      "type": "VEC3"
    },
    {
      "bufferView": 26,
      "componentType": 5126,
      "count": 112,
      "max": [
        1.0,
        1.0,
        1.0
      ],
      "min": [
        -1.0,
        -1.0,
        -1.0
      ],
      "type": "VEC3"
    },
    {
      "bufferView": 27,
      "componentType": 5126,
      "count": 112,
      "max": [
        1.0,
        0.9317299983865752
      ],
      "min": [
        0.0,
        0.0
      ],
      "type": "VEC2"
    },
    {
      "bufferView": 28,
      "componentType": 5125,
      "count": 288,
      "type": "SCALAR"
    },
    {
      "bufferView": 29,
      "componentType": 5126,
      "count": 112,
      "max": [
        -0.006649999834038328,
        -0.0022749999396764753,
        0.0085039367930465
      ],
      "min": [
        -0.017149999563896567,
        -0.0145249996359198,
        -0.0085039367930465
      ],
      "type": "VEC3"
    },
    {
      "bufferView": 30,
      "componentType": 5126,
      "count": 112,
      "max": [
        1.0,
        1.0,
        1.0
      ],
      "min": [
        -1.0,
        -1.0,
        -1.0
      ],
      "type": "VEC3"
    },
    {
      "bufferView": 31,
      "componentType": 5126,
      "count": 112,
      "max": [
        1.0,
        0.969322871911338
      ],
      "min": [
        0.0,
        0.0
      ],
      "type": "VEC2"
    },
    {
      "bufferView": 32,
      "componentType": 5125,
      "count": 324,
      "type": "SCALAR"
    },
    {
      "bufferView": 33,
      "componentType": 5126,
      "count": 126,
      "max": [
        0.01819999953779043,
        0.01452499963591982,
        0.008503936793046497
      ],
      "min": [
        0.005949999852955815,
        0.002274999939676496,
        -0.0085039367930465
      ],
      "type": "VEC3"
    },
    {
      "bufferView": 34,
      "componentType": 5126,
      "count": 126,
      "max": [
        1.0,
        1.0,
        1.0
      ],
      "min": [
        -1.0,
        -1.0,
        -1.0
      ],
      "type": "VEC3"
    },
    {
      "bufferView": 35,
      "componentType": 5126,
      "count": 126,
      "max": [
        0.8712021788750153,
        1.0
      ],
      "min": [
        0.0,
        0.0
      ],
      "type": "VEC2"
    },
    {
      "bufferView": 36,
      "componentType": 5125,
      "count": 360,
      "type": "SCALAR"
    },
    {
      "bufferView": 37,
      "componentType": 5126,
      "count": 140,
      "max": [
        0.017549999554851092,
        -0.0018749999495950645,
        0.008503936793046497
      ],
      "min": [
        0.006249999844736898,
        -0.014924999626001217,
        -0.0085039367930465
      ],
      "type": "VEC3"
    },
    {
      "bufferView": 38,
      "componentType": 5126,
      "count": 140,
      "max": [
        1.0,
        1.0,
        1.0
      ],
      "min": [
        -1.0,
        -1.0,
        -1.0
      ],
      "type": "VEC3"
    },
    {
      "bufferView": 39,
      "componentType": 5126,
      "count": 140,
      "max": [
        0.9671060404393258,
        1.0
      ],
      "min": [
        0.0,
        0.0
      ],
      "type": "VEC2"
    },
    {
      "bufferView": 40,
      "componentType": 5125,
      "count": 360,
      "type": "SCALAR"
    },
    {
      "bufferView": 41,
      "componentType": 5126,
      "count": 140,
      "max": [
        0.005649999855470378,
        -0.0018749999495950645,
        0.008503936793046497
      ],
      "min": [
        -0.005649999854643817,
        -0.014924999626001217,
        -0.0085039367930465
      ],
      "type": "VEC3"
    },
    {
      "bufferView": 42,
      "componentType": 5126,
      "count": 140,
      "max": [
        1.0,
        1.0,
        1.0
      ],
      "min": [
        -1.0,
        -1.0,
        -1.0
      ],
      "type": "VEC3"
    },
    {
      "bufferView": 43,
      "componentType": 5126,
      "count": 140,
      "max": [
        0.9671060404393258,
        1.0
      ],
      "min": [
        0.0,
        0.0
      ],
      "type": "VEC2"
    },
    {
      "bufferView": 44,
      "componentType": 5125,
      "count": 360,
      "type": "SCALAR"
    },
    {
      "bufferView": 45,
      "componentType": 5126,
      "count": 140,
      "max": [
        -0.0072999998173851055,
        0.014924999626001235,
        0.008503936793046497
      ],
      "min": [
        -0.018599999527499314,
        0.0018749999495950853,
        -0.0085039367930465
      ],
      "type": "VEC3"
    },
    {
      "bufferView": 46,
      "componentType": 5126,
      "count": 140,
      "max": [
        1.0,
        1.0,
        1.0
      ],
      "min": [
        -1.0,
        -1.0,
        -1.0
      ],
      "type": "VEC3"
    },
    {
      "bufferView": 47,
      "componentType": 5126,
      "count": 140,
      "max": [
        0.9671060404393256,
        1.0
      ],
      "min": [
        0.0,
        0.0
      ],
      "type": "VEC2"
    },
    {
      "bufferView": 48,
      "componentType": 5125,
      "count": 432,
      "type": "SCALAR"
    },
    {
      "bufferView": 49,
      "componentType": 5126,
      "count": 168,
      "max": [
        -0.006249999843910309,
        -0.0018749999495950714,
        0.0085039367930465
      ],
      "min": [
        -0.01754999955402453,
        -0.014924999626001231,
        -0.0085039367930465
      ],
      "type": "VEC3"
    },
    {
      "bufferView": 50,
      "componentType": 5126,
      "count": 168,
      "max": [
        1.0,
        1.0,
        1.0
      ],
      "min": [
        -1.0,
        -1.0,
        -1.0
      ],
      "type": "VEC3"
    },
    {
      "bufferView": 51,
      "componentType": 5126,
      "count": 168,
      "max": [
        0.9937369496772349,
        1.0
      ],
      "min": [
        0.0,
        0.0
      ],
      "type": "VEC2"
    },
    {
      "bufferView": 52,
      "componentType": 5125,
      "count": 432,
      "type": "SCALAR"
    },
    {
      "bufferView": 53,
      "componentType": 5126,
      "count": 168,
      "max": [
        0.018599999527499314,
        0.014924999626001235,
        0.00850393679304649
      ],
      "min": [
        0.005549999863246932,
        0.0018749999495950853,
        -0.0085039367930465
      ],
      "type": "VEC3"
    },
    {
      "bufferView": 54,
      "componentType": 5126,
      "count": 168,
      "max": [
        1.0,
        1.0,
        1.0
      ],
      "min": [
        -1.0,
        -1.0,
        -1.0
      ],
      "type": "VEC3"
    },
    {
      "bufferView": 55,
      "componentType": 5126,
      "count": 168,
      "max": [
        0.9926250612147608,
        1.0
      ],
      "min": [
        0.0,
        0.0
      ],
      "type": "VEC2"
    },
    {
      "bufferView": 56,
      "componentType": 5125,
      "count": 432,
      "type": "SCALAR"
    },
    {
      "bufferView": 57,
      "componentType": 5126,
      "count": 168,
      "max": [
        0.004599999881995595,
        0.014924999626001228,
        0.00850393679304649
      ],
      "min": [
        -0.006699999828118586,
        0.0018749999495950853,
        -0.0085039367930465
      ],
      "type": "VEC3"
    },
    {
      "bufferView": 58,
      "componentType": 5126,
      "count": 168,
      "max": [
        1.0,
        1.0,
        1.0
      ],
      "min": [
        -1.0,
        -1.0,
        -1.0
      ],
      "type": "VEC3"
    },
    {
      "bufferView": 59,
      "componentType": 5126,
      "count": 168,
      "max": [
        0.9933383561695531,
        1.0
      ],
      "min": [
        0.0,
        0.0
      ],
      "type": "VEC2"
    }
  ],
  "asset": {
    "generator": "Adobe Illustrator",
    "version": "2.0"
  },
  "bufferViews": [
    {
      "buffer": 0,
      "byteLength": 576,
      "target": 34963
    },
    {
      "buffer": 0,
      "byteLength": 672,
      "byteOffset": 576,
      "target": 34962
    },
    {
      "buffer": 0,
      "byteLength": 672,
      "byteOffset": 1248,
      "target": 34962
    },
    {
      "buffer": 0,
      "byteLength": 448,
      "byteOffset": 1920,
      "target": 34962
    },
    {
      "buffer": 0,
      "byteLength": 576,
      "byteOffset": 2368,
      "target": 34963
    },
    {
      "buffer": 0,
      "byteLength": 672,
      "byteOffset": 2944,
      "target": 34962
    },
    {
      "buffer": 0,
      "byteLength": 672,
      "byteOffset": 3616,
      "target": 34962
    },
    {
      "buffer": 0,
      "byteLength": 448,
      "byteOffset": 4288,
      "target": 34962
    },
    {
      "buffer": 0,
      "byteLength": 672,
      "byteOffset": 4736,
      "target": 34963
    },
    {
      "buffer": 0,
      "byteLength": 840,
      "byteOffset": 5408,
      "target": 34962
    },
    {
      "buffer": 0,
      "byteLength": 840,
      "byteOffset": 6248,
      "target": 34962
    },
    {
      "buffer": 0,
      "byteLength": 560,
      "byteOffset": 7088,
      "target": 34962
    },
    {
      "buffer": 0,
      "byteLength": 672,
      "byteOffset": 7648,
      "target": 34963
    },
    {
      "buffer": 0,
      "byteLength": 840,
      "byteOffset": 8320,
      "target": 34962
    },
    {
      "buffer": 0,
      "byteLength": 840,
      "byteOffset": 9160,
      "target": 34962
    },
    {
      "buffer": 0,
      "byteLength": 560,
      "byteOffset": 10000,
      "target": 34962
    },
    {
      "buffer": 0,
      "byteLength": 672,
      "byteOffset": 10560,
      "target": 34963
    },
    {
      "buffer": 0,
      "byteLength": 840,
      "byteOffset": 11232,
      "target": 34962
    },
    {
      "buffer": 0,
      "byteLength": 840,
      "byteOffset": 12072,
      "target": 34962
    },
    {
      "buffer": 0,
      "byteLength": 560,
      "byteOffset": 12912,
      "target": 34962
    },
    {
      "buffer": 0,
      "byteLength": 864,
      "byteOffset": 13472,
      "target": 34963
    },
    {
      "buffer": 0,
      "byteLength": 1008,
      "byteOffset": 14336,
      "target": 34962
    },
    {
      "buffer": 0,
      "byteLength": 1008,
      "byteOffset": 15344,
      "target": 34962
    },
    {
      "buffer": 0,
      "byteLength": 672,
      "byteOffset": 16352,
      "target": 34962
    },
    {
      "buffer": 0,
      "byteLength": 1152,
      "byteOffset": 17024,
      "target": 34963
    },
    {
      "buffer": 0,
      "byteLength": 1344,
      "byteOffset": 18176,
      "target": 34962
    },
    {
      "buffer": 0,
      "byteLength": 1344,
      "byteOffset": 19520,
      "target": 34962
    },
    {
      "buffer": 0,
      "byteLength": 896,
      "byteOffset": 20864,
      "target": 34962
    },
    {
      "buffer": 0,
      "byteLength": 1152,
      "byteOffset": 21760,
      "target": 34963
    },
    {
      "buffer": 0,
      "byteLength": 1344,
      "byteOffset": 22912,
      "target": 34962
    },
    {
      "buffer": 0,
      "byteLength": 1344,
      "byteOffset": 24256,
      "target": 34962
    },
    {
      "buffer": 0,
      "byteLength": 896,
      "byteOffset": 25600,
      "target": 34962
    },
    {
      "buffer": 0,
      "byteLength": 1296,
      "byteOffset": 26496,
      "target": 34963
    },
    {
      "buffer": 0,
      "byteLength": 1512,
      "byteOffset": 27792,
      "target": 34962
    },
    {
      "buffer": 0,
      "byteLength": 1512,
      "byteOffset": 29304,
      "target": 34962
    },
    {
      "buffer": 0,
      "byteLength": 1008,
      "byteOffset": 30816,
      "target": 34962
    },
    {
      "buffer": 0,
      "byteLength": 1440,
      "byteOffset": 31824,
      "target": 34963
    },
    {
      "buffer": 0,
      "byteLength": 1680,
      "byteOffset": 33264,
      "target": 34962
    },
    {
      "buffer": 0,
      "byteLength": 1680,
      "byteOffset": 34944,
      "target": 34962
    },
    {
      "buffer": 0,
      "byteLength": 1120,
      "byteOffset": 36624,
      "target": 34962
    },
    {
      "buffer": 0,
      "byteLength": 1440,
      "byteOffset": 37744,
      "target": 34963
    },
    {
      "buffer": 0,
      "byteLength": 1680,
      "byteOffset": 39184,
      "target": 34962
    },
    {
      "buffer": 0,
      "byteLength": 1680,
      "byteOffset": 40864,
      "target": 34962
    },
    {
      "buffer": 0,
      "byteLength": 1120,
      "byteOffset": 42544,
      "target": 34962
    },
    {
      "buffer": 0,
      "byteLength": 1440,
      "byteOffset": 43664,
      "target": 34963
    },
    {
      "buffer": 0,
      "byteLength": 1680,
      "byteOffset": 45104,
      "target": 34962
    },
    {
      "buffer": 0,
      "byteLength": 1680,
      "byteOffset": 46784,
      "target": 34962
    },
    {
      "buffer": 0,
      "byteLength": 1120,
      "byteOffset": 48464,
      "target": 34962
    },
    {
      "buffer": 0,
      "byteLength": 1728,
      "byteOffset": 49584,
      "target": 34963
    },
    {
      "buffer": 0,
      "byteLength": 2016,
      "byteOffset": 51312,
      "target": 34962
    },
    {
      "buffer": 0,
      "byteLength": 2016,
      "byteOffset": 53328,
      "target": 34962
    },
    {
      "buffer": 0,
      "byteLength": 1344,
      "byteOffset": 55344,
      "target": 34962
    },
    {
      "buffer": 0,
      "byteLength": 1728,
      "byteOffset": 56688,
      "target": 34963
    },
    {
      "buffer": 0,
      "byteLength": 2016,
      "byteOffset": 58416,
      "target": 34962
    },
    {
      "buffer": 0,
      "byteLength": 2016,
      "byteOffset": 60432,
      "target": 34962
    },
    {
      "buffer": 0,
      "byteLength": 1344,
      "byteOffset": 62448,
      "target": 34962
    },
    {
      "buffer": 0,
      "byteLength": 1728,
      "byteOffset": 63792,
      "target": 34963
    },
    {
      "buffer": 0,
      "byteLength": 2016,
      "byteOffset": 65520,
      "target": 34962
    },
    {
      "buffer": 0,
      "byteLength": 2016,
      "byteOffset": 67536,
      "target": 34962
    },
    {
      "buffer": 0,
      "byteLength": 1344,
      "byteOffset": 69552,
      "target": 34962
    }
  ],
  "buffers": [
    {
      "byteLength": 70896,
      "uri": "data:application/octet-stream;base64,"
    }
  ],
  "materials": [
    {
      "doubleSided": true,
      "pbrMetallicRoughness": {
        "baseColorFactor": [
          0.9999999403953552,
          0.9999999403953552,
          0.9999999403953552,
          1.0
        ],
        "metallicFactor": 0.0,
        "roughnessFactor": 0.4000000059604645
      }
    },
    {
      "doubleSided": true,
      "pbrMetallicRoughness": {
        "baseColorFactor": [
          0.9999999403953552,
          0.9999999403953552,
          0.9999999403953552,
          1.0
        ],
        "metallicFactor": 0.0,
        "roughnessFactor": 0.4000000059604645
      }
    },
    {
      "doubleSided": true,
      "pbrMetallicRoughness": {
        "baseColorFactor": [
          0.9999999403953552,
          0.0,
          0.0,
          1.0
        ],
        "metallicFactor": 0.0,
        "roughnessFactor": 0.4000000059604645
      }
    },
    {
      "doubleSided": true,
      "pbrMetallicRoughness": {
        "baseColorFactor": [
          0.9999999403953552,
          0.0,
          0.0,
          1.0
        ],
        "metallicFactor": 0.0,
        "roughnessFactor": 0.4000000059604645
      }
    },
    {
      "doubleSided": true,
      "pbrMetallicRoughness": {
        "baseColorFactor": [
          0.0,
          0.8984375,
          0.9999999403953552,
          1.0
        ],
        "metallicFactor": 0.0,
        "roughnessFactor": 0.4000000059604645
      }
    },
    {
      "doubleSided": true,
      "pbrMetallicRoughness": {
        "baseColorFactor": [
          0.9999999403953552,
          0.9999999403953552,
          0.9999999403953552,
          1.0
        ],
        "metallicFactor": 0.0,
        "roughnessFactor": 0.4000000059604645
      }
    },
    {
      "doubleSided": true,
      "pbrMetallicRoughness": {
        "baseColorFactor": [
          0.0,
          0.8984375,
          0.9999999403953552,
          1.0
        ],
        "metallicFactor": 0.0,
        "roughnessFactor": 0.4000000059604645
      }
    },
    {
      "doubleSided": true,
      "pbrMetallicRoughness": {
        "baseColorFactor": [
          0.9999999403953552,
          0.0,
          0.0,
          1.0
        ],
        "metallicFactor": 0.0,
        "roughnessFactor": 0.4000000059604645
      }
    },
    {
      "doubleSided": true,
      "pbrMetallicRoughness": {
        "baseColorFactor": [
          0.0,
          0.8984375,
          0.9999999403953552,
          1.0
        ],
        "metallicFactor": 0.0,
        "roughnessFactor": 0.4000000059604645
      }
    },
    {
      "doubleSided": true,
      "pbrMetallicRoughness": {
        "baseColorFactor": [
          0.9999999403953552,
          0.9999999403953552,
          0.9999999403953552,
          1.0
        ],
        "metallicFactor": 0.0,
        "roughnessFactor": 0.4000000059604645
      }
    },
    {
      "doubleSided": true,
      "pbrMetallicRoughness": {
        "baseColorFactor": [
          0.9999999403953552,
          0.9999999403953552,
          0.9999999403953552,
          1.0
        ],
        "metallicFactor": 0.0,
        "roughnessFactor": 0.4000000059604645
      }
    },
    {
      "doubleSided": true,
      "pbrMetallicRoughness": {
        "baseColorFactor": [
          0.9999999403953552,
          0.9999999403953552,
          0.9999999403953552,
          1.0
        ],
        "metallicFactor": 0.0,
        "roughnessFactor": 0.4000000059604645
      }
    },
    {
      "doubleSided": true,
      "pbrMetallicRoughness": {
        "baseColorFactor": [
          0.9999999403953552,
          0.9999999403953552,
          0.9999999403953552,
          1.0
        ],
        "metallicFactor": 0.0,
        "roughnessFactor": 0.4000000059604645
      }
    },
    {
      "doubleSided": true,
      "pbrMetallicRoughness": {
        "baseColorFactor": [
          0.9999999403953552,
          0.9999999403953552,
          0.9999999403953552,
          1.0
        ],
        "metallicFactor": 0.0,
        "roughnessFactor": 0.4000000059604645
      }
    },
    {
      "doubleSided": true,
      "pbrMetallicRoughness": {
        "baseColorFactor": [
          0.9999999403953552,
          0.9999999403953552,
          0.9999999403953552,
          1.0
        ],
        "metallicFactor": 0.0,
        "roughnessFactor": 0.4000000059604645
      }
    }
  ],
  "meshes": [
    {
      "primitives": [
        {
          "attributes": {
            "NORMAL": 2,
            "POSITION": 1,
            "TEXCOORD_0": 3
          },
          "indices": 0,
          "material": 0,
          "mode": 4
        }
      ]
    },
    {
      "primitives": [
        {
          "attributes": {
            "NORMAL": 6,
            "POSITION": 5,
            "TEXCOORD_0": 7
          },
          "indices": 4,
          "material": 1,
          "mode": 4
        }
      ]
    },
    {
      "primitives": [
        {
          "attributes": {
            "NORMAL": 10,
            "POSITION": 9,
            "TEXCOORD_0": 11
          },
          "indices": 8,
          "material": 2,
          "mode": 4
        }
      ]
    },
    {
      "primitives": [
        {
          "attributes": {
            "NORMAL": 14,
            "POSITION": 13,
            "TEXCOORD_0": 15
          },
          "indices": 12,
          "material": 3,
          "mode": 4
        }
      ]
    },
    {
      "primitives": [
        {
          "attributes": {
            "NORMAL": 18,
            "POSITION": 17,
            "TEXCOORD_0": 19
          },
          "indices": 16,
          "material": 4,
          "mode": 4
        }
      ]
    },
    {
      "primitives": [
        {
          "attributes": {
            "NORMAL": 22,
            "POSITION": 21,
            "TEXCOORD_0": 23
          },
          "indices": 20,
          "material": 5,
          "mode": 4
        }
      ]
    },
    {
      "primitives": [
        {
          "attributes": {
            "NORMAL": 26,
            "POSITION": 25,
            "TEXCOORD_0": 27
          },
          "indices": 24,
          "material": 6,
          "mode": 4
        }
      ]
    },
    {
      "primitives": [
        {
          "attributes": {
            "NORMAL": 30,
            "POSITION": 29,
            "TEXCOORD_0": 31
          },
          "indices": 28,
          "material": 7,
          "mode": 4
        }
      ]
    },
    {
      "primitives": [
        {
          "attributes": {
            "NORMAL": 34,
            "POSITION": 33,
            "TEXCOORD_0": 35
          },
          "indices": 32,
          "material": 8,
          "mode": 4
        }
      ]
    },
    {
      "primitives": [
        {
          "attributes": {
            "NORMAL": 38,
            "POSITION": 37,
            "TEXCOORD_0": 39
          },
          "indices": 36,
          "material": 9,
          "mode": 4
        }
      ]
    },
    {
      "primitives": [
        {
          "attributes": {
            "NORMAL": 42,
            "POSITION": 41,
            "TEXCOORD_0": 43
          },
          "indices": 40,
          "material": 10,
          "mode": 4
        }
      ]
    },
    {
      "primitives": [
        {
          "attributes": {
            "NORMAL": 46,
            "POSITION": 45,
            "TEXCOORD_0": 47
          },
          "indices": 44,
          "material": 11,
          "mode": 4
        }
      ]
    },
    {
      "primitives": [
        {
          "attributes": {
            "NORMAL": 50,
            "POSITION": 49,
            "TEXCOORD_0": 51
          },
          "indices": 48,
          "material": 12,
          "mode": 4
        }
      ]
    },
    {
      "primitives": [
        {
          "attributes": {
            "NORMAL": 54,
            "POSITION": 53,
            "TEXCOORD_0": 55
          },
          "indices": 52,
          "material": 13,
          "mode": 4
        }
      ]
    },
    {
      "primitives": [
        {
          "attributes": {
            "NORMAL": 58,
            "POSITION": 57,
            "TEXCOORD_0": 59
          },
          "indices": 56,
          "material": 14,
          "mode": 4
        }
      ]
    }
  ],
  "nodes": [
    {
      "mesh": 0
    },
    {
      "mesh": 1
    },
    {
      "mesh": 2
    },
    {
      "mesh": 3
    },
    {
      "mesh": 4
    },
    {
      "mesh": 5
    },
    {
      "mesh": 6
    },
    {
      "mesh": 7
    },
    {
      "mesh": 8
    },
    {
      "mesh": 9
    },
    {
      "mesh": 10
    },
    {
      "mesh": 11
    },
    {
      "mesh": 12
    },
    {
      "mesh": 13
    },
    {
      "mesh": 14
    }
  ],
  "scenes": [
    {
      "nodes": [
        0,
        1,
        2,
        3,
        4,
        5,
        6,
        7,
        8,
        9,
        10,
        11,
        12,
        13,
        14
      ]
    }
  ]
}
