{
  "accessors": [
    {
      "bufferView": 0,
      "componentType": 5125,
      "count": 57216,
      "type": "SCALAR"
    },
    {
      "bufferView": 1,
      "componentType": 5126,
      "count": 11832,
      "max": [
        0.011999999702442421,
        0.011345829732639034,
        0.01251836020971053
      ],
      "min": [
        -0.011999999702442449,
        -0.01134582973263902,
        -0.012518360209710533
      ],
      "type": "VEC3"
    },
    {
      "bufferView": 2,
      "componentType": 5126,
      "count": 11832,
      "max": [
        1.0,
        1.0,
        0.9999728355360911
      ],
      "min": [
        -1.0,
        -1.0,
        -0.9999728355360911
      ],
      "type": "VEC3"
    },
    {
      "bufferView": 3,
      "componentType": 5126,
      "count": 11832,
      "max": [
        0.9961436601500993,
        1.0
      ],
      "min": [
        0.0,
        0.0
      ],
      "type": "VEC2"
    }
  ],
  "asset": {
    "generator": "Adobe Illustrator",
    "version": "2.0"
  },
  "bufferViews": [
    {
      "buffer": 0,
      "byteLength": 228864,
      "target": 34963
    },
    {
      "buffer": 0,
      "byteLength": 141984,
      "byteOffset": 228864,
      "target": 34962
    },
    {
      "buffer": 0,
      "byteLength": 141984,
      "byteOffset": 370848,
      "target": 34962
    },
    {
      "buffer": 0,
      "byteLength": 94656,
      "byteOffset": 512832,
      "target": 34962
    }
  ],
  "buffers": [
    {
      "byteLength": 607488,
      "uri": "data:application/octet-stream;base64,"
    }
  ],
  "materials": [
    {
      "doubleSided": true,
      "pbrMetallicRoughness": {
        "baseColorFactor": [
          0.0,
          0.9765624403953552,
          0.4101562798023224,
          1.0
        ],
        "metallicFactor": 0.0,
        "roughnessFactor": 0.4000000059604645
      }
    }
  ],
  "meshes": [
    {
      "primitives": [
        {
          "attributes": {
            "NORMAL": 2,
            "POSITION": 1,
            "TEXCOORD_0": 3
          },
          "indices": 0,
          "material": 0,
          "mode": 4
        }
      ]
    }
  ],
  "nodes": [
    {
      "mesh": 0
    }
  ],
  "scenes": [
    {
      "nodes": [
        0
      ]
    }
  ]
}
