{
  "accessors": [
    {
      "bufferView": 0,
      "componentType": 5125,
      "count": 780,
      "type": "SCALAR"
    },
    {
      "bufferView": 1,
      "componentType": 5126,
      "count": 308,
      "max": [
        0.011999999702442449,
        0.01049999973963714,
        0.008503936793046497
      ],
      "min": [
        -0.011999999702442449,
        -0.01049999973963714,
        -0.0085039367930465
      ],
      "type": "VEC3"
    },
    {
      "bufferView": 2,
      "componentType": 5126,
      "count": 308,
      "max": [
        1.0,
        1.0,
        1.0
      ],
      "min": [
        -1.0,
        -1.0,
        -1.0
      ],
      "type": "VEC3"
    },
    {
      "bufferView": 3,
      "componentType": 5126,
      "count": 308,
      "max": [
        0.9749784922508209,
        1.0
      ],
      "min": [
        0.0,
        0.0
      ],
      "type": "VEC2"
    },
    {
      "bufferView": 4,
      "componentType": 5125,
      "count": 1584,
      "type": "SCALAR"
    },
    {
      "bufferView": 5,
      "componentType": 5126,
      "count": 616,
      "max": [
        0.012399999692523866,
        0.01089999972822843,
        0.0085039367930465
      ],
      "min": [
        -0.012399999692523839,
        -0.01089999972822843,
        -0.0085039367930465
      ],
      "type": "VEC3"
    },
    {
      "bufferView": 6,
      "componentType": 5126,
      "count": 616,
      "max": [
        1.0,
        1.0,
        1.0
      ],
      "min": [
        -1.0,
        -1.0,
        -1.0
      ],
      "type": "VEC3"
    },
    {
      "bufferView": 7,
      "componentType": 5126,
      "count": 616,
      "max": [
        0.9836081941423601,
        1.0
      ],
      "min": [
        0.0,
        0.0
      ],
      "type": "VEC2"
    }
  ],
  "asset": {
    "generator": "Adobe Illustrator",
    "version": "2.0"
  },
  "bufferViews": [
    {
      "buffer": 0,
      "byteLength": 3120,
      "target": 34963
    },
    {
      "buffer": 0,
      "byteLength": 3696,
      "byteOffset": 3120,
      "target": 34962
    },
    {
      "buffer": 0,
      "byteLength": 3696,
      "byteOffset": 6816,
      "target": 34962
    },
    {
      "buffer": 0,
      "byteLength": 2464,
      "byteOffset": 10512,
      "target": 34962
    },
    {
      "buffer": 0,
      "byteLength": 6336,
      "byteOffset": 12976,
      "target": 34963
    },
    {
      "buffer": 0,
      "byteLength": 7392,
      "byteOffset": 19312,
      "target": 34962
    },
    {
      "buffer": 0,
      "byteLength": 7392,
      "byteOffset": 26704,
      "target": 34962
    },
    {
      "buffer": 0,
      "byteLength": 4928,
      "byteOffset": 34096,
      "target": 34962
    }
  ],
  "buffers": [
    {
      "byteLength": 39024,
      "uri": "data:application/octet-stream;base64,"
    }
  ],
  "materials": [
    {
      "doubleSided": true,
      "pbrMetallicRoughness": {
        "baseColorFactor": [
          0.0,
          0.8984375,
          0.9999999403953552,
          1.0
        ],
        "metallicFactor": 0.0,
        "roughnessFactor": 0.4000000059604645
      }
    },
    {
      "doubleSided": true,
      "pbrMetallicRoughness": {
        "baseColorFactor": [
          0.9999999403953552,
          0.9999999403953552,
          0.9999999403953552,
          1.0
        ],
        "metallicFactor": 0.0,
        "roughnessFactor": 0.4000000059604645
      }
    }
  ],
  "meshes": [
    {
      "primitives": [
        {
          "attributes": {
            "NORMAL": 2,
            "POSITION": 1,
            "TEXCOORD_0": 3
          },
          "indices": 0,
          "material": 0,
          "mode": 4
        }
      ]
    },
    {
      "primitives": [
        {
          "attributes": {
            "NORMAL": 6,
            "POSITION": 5,
            "TEXCOORD_0": 7
          },
          "indices": 4,
          "material": 1,
          "mode": 4
        }
      ]
    }
  ],
  "nodes": [
    {
      "mesh": 0
    },
    {
      "mesh": 1
    }
  ],
  "scenes": [
    {
      "nodes": [
        0,
        1
      ]
    }
  ]
}
